<?xml version="1.0" encoding="UTF-8" standalone="no"?><!DOCTYPE svg PUBLIC "-//W3C//DTD SVG 1.1//EN" "http://www.w3.org/Graphics/SVG/1.1/DTD/svg11.dtd"><svg width="100%" height="100%" viewBox="0 0 50 50" version="1.1" xmlns="http://www.w3.org/2000/svg" xmlns:xlink="http://www.w3.org/1999/xlink" xml:space="preserve" xmlns:serif="http://www.serif.com/" style="fill-rule:evenodd;clip-rule:evenodd;stroke-linejoin:round;stroke-miterlimit:2;"><rect id="Artboard3" x="0" y="0" width="50" height="50" style="fill:none;"/><clipPath id="_clip1"><rect id="Artboard31" serif:id="Artboard3" x="0" y="0" width="50" height="50"/></clipPath><g clip-path="url(#_clip1)"><path d="M6.000012743932,45c-1.591299946602,0.00000337991 -3.117425647949,-0.632135219077 -4.242646475761,-1.757352357555c-1.125220827812,-1.125217138478 -1.757364430612,-2.651340767179 -1.757366268209,-4.242640713783c0.00000000001,-7.552189679888 0.00000000001,-20.447824057733 0.00000000001,-28.000013775986c0.000001816025,-1.591299974193 0.632145419994,-3.117423635594 1.757366266993,-4.242640793901c1.125220846998,-1.125217158307 2.651346580684,-1.757355759337 4.242646554874,-1.757352358765c9.618436838044,-0.00000000001 28.381537645509,-0.00000000001 37.999974434174,-0.00000000001c1.591299946602,-0.00000337991 3.117425647949,0.632135219077 4.242646475761,1.757352357555c1.125220827812,1.125217138478 1.757364430612,2.651340767179 1.757366268209,4.242640713783c-0.00000000001,7.552189679888 -0.00000000001,20.447824057733 -0.00000000001,28.000013775986c-0.000001816025,1.591299960694 -0.6321454093,3.117423610289 -1.757366239449,4.242640766357c-1.125220830149,1.125217156068 -2.651346543819,1.757355766219 -4.242646504511,1.757352386309c-9.618436788665,0.00000000001 -28.38153759613,0.00000000001 -37.999974512081,0.00000000001Zm-3.000012743932,-33.688350588803l-0,3.696701230087l17.737672461792,12.771124151331c2.545923019437,1.833073923752 5.97873205698,1.833073923752 8.524658021562,-0.00000212051l17.737669516646,-12.77112203085l0,-3.69670123009l-19.490586637414,14.033222355719c-1.49889496267,1.07920987772 -3.5199317625,1.07920987772 -5.018823780026,0.000002120509l-19.49058958256,-14.033224476197Z" style="fill:#fff;"/></g></svg>