<?xml version="1.0" encoding="UTF-8" standalone="no"?><!DOCTYPE svg PUBLIC "-//W3C//DTD SVG 1.1//EN" "http://www.w3.org/Graphics/SVG/1.1/DTD/svg11.dtd"><svg width="100%" height="100%" viewBox="0 0 50 50" version="1.1" xmlns="http://www.w3.org/2000/svg" xmlns:xlink="http://www.w3.org/1999/xlink" xml:space="preserve" xmlns:serif="http://www.serif.com/" style="fill-rule:evenodd;clip-rule:evenodd;stroke-linejoin:round;stroke-miterlimit:2;"><rect id="Artboard2" x="0" y="0" width="50" height="50" style="fill:none;"/><clipPath id="_clip1"><rect id="Artboard21" serif:id="Artboard2" x="0" y="0" width="50" height="50"/></clipPath><g clip-path="url(#_clip1)"><path d="M45.000000000055,11.229271899636l-10.482755888282,-0c-0.412289114368,-0.000000710277 -0.746515301076,-0.334226896985 -0.746516011354,-0.746516011354l0,-10.482755888282l11.229271899636,11.229271899636Z" style="fill:#fff;"/><g transform="matrix(1.733083,0,0,1.733083,-183.151285,0.499351)"><g><g transform="matrix(12,0,0,12,112.726757,18.509824)"><path d="M0.307,0.008c-0.052,0 -0.097666666667,-0.010166666667 -0.137,-0.0305c-0.039333333333,-0.020333333333 -0.069666666667,-0.048833333333 -0.091,-0.0855c-0.021333333333,-0.036666666667 -0.032,-0.079 -0.032,-0.127l0,-0.231c0,-0.048 0.010666666667,-0.090333333333 0.032,-0.127c0.021333333333,-0.036666666667 0.051666666667,-0.065 0.091,-0.085c0.039333333333,-0.02 0.085,-0.03 0.137,-0.03c0.051333333333,0 0.0965,0.0095 0.1355,0.0285c0.039,0.019 0.069333333333,0.046 0.091,0.081c0.021666666667,0.035 0.0325,0.0755 0.0325,0.1215c0,0.006 -0.004,0.009666666667 -0.012,0.011l-0.117,0.007l-0.002,0c-0.006666666667,0 -0.01,-0.003666666667 -0.01,-0.011c0,-0.035333333333 -0.010833333333,-0.063666666667 -0.0325,-0.085c-0.021666666667,-0.021333333333 -0.050166666667,-0.032 -0.0855,-0.032c-0.036,0 -0.064833333333,0.010666666667 -0.0865,0.032c-0.021666666667,0.021333333333 -0.0325,0.049666666667 -0.0325,0.085l0,0.241c0,0.034666666667 0.010833333333,0.062666666667 0.0325,0.084c0.021666666667,0.021333333333 0.0505,0.032 0.0865,0.032c0.035333333333,0 0.063833333333,-0.010666666667 0.0855,-0.032c0.021666666667,-0.021333333333 0.0325,-0.049333333333 0.0325,-0.084c0,-0.007333333333 0.004,-0.011 0.012,-0.011l0.117,0.005c0.003333333333,0 0.006166666667,0.001 0.0085,0.003c0.002333333333,0.002 0.0035,0.004333333333 0.0035,0.007c0,0.046 -0.010833333333,0.086666666667 -0.0325,0.122c-0.021666666667,0.035333333333 -0.052,0.062666666667 -0.091,0.082c-0.039,0.019333333333 -0.084166666667,0.029 -0.1355,0.029Z" style="fill:#fff;fill-rule:nonzero;"/></g><g transform="matrix(12,0,0,12,119.842757,18.509824)"><path d="M0.247,-0c-0.006666666667,-0 -0.011,-0.003333333333 -0.013,-0.01l-0.206,-0.676l-0.001,-0.004c0,-0.006666666667 0.003666666667,-0.01 0.011,-0.01l0.126,0c0.007333333333,0 0.012,0.003333333333 0.014,0.01l0.133,0.488c0.000666666667,0.002 0.001666666667,0.003 0.003,0.003c0.001333333333,0 0.002333333333,-0.001 0.003,-0.003l0.131,-0.488c0.002,-0.006666666667 0.006666666667,-0.01 0.014,-0.01l0.123,0c0.004,0 0.007,0.001333333333 0.009,0.004c0.002,0.002666666667 0.002333333333,0.006 0.001,0.01l-0.209,0.676c-0.002,0.006666666667 -0.006333333333,0.01 -0.013,0.01l-0.126,-0Z" style="fill:#fff;fill-rule:nonzero;"/></g></g></g><path d="M44.121322043213,8.350593942833c0.562610792215,0.562611693763 0.878680875579,1.325677199044 0.878677956781,2.121329649217l0.000000000054,33.528067627305c0.000002328772,1.591299259914 -0.632136734253,3.117423943071 -1.757353758802,4.242643913687c-1.125217024549,1.125219970616 -2.651340052624,1.757363029365 -4.242639312538,1.75736486696l-28.000013776025,-0.000000000002c-1.591299974194,-0.000001816022 -3.117423635597,-0.632145419991 -4.242640793906,-1.75736626699c-1.125217158309,-1.125220846999 -1.75735575934,-2.651346580685 -1.757352358768,-4.242646554877l-0.00000000001,-37.999974434174c-0.000007038294,-3.313708041205 2.686278042618,-6.000005058265 5.999986083822,-6.000012743957l23.52811305948,-0.000000000003c0.795644571896,0.000003110972 1.558700790957,0.31607273535 2.121306913932,0.878677956788l7.47191598598,7.471915986045Zm-2.121321618295,2.121321820157l-7.471907146612,-7.471915762997l-23.528139732143,0.000000000349c-1.656835869844,0.000025187685 -2.999957065289,1.343165516302 -2.999953546164,3.000012743619l0.000000000006,37.999977639639c-0.000001700286,0.795649987096 0.316067600226,1.558716059408 0.878676179381,2.121326482908c0.562597982518,0.562599826828 1.325641665649,0.87867031908 2.121326367936,0.878683133494l28.000045874797,-0.000000000384c0.795633416413,-0.000012824804 1.55867678289,-0.316083044447 2.12127469853,-0.878682433093c0.562608512275,-0.562609985309 0.878678043788,-1.325672326888 0.878676879399,-2.121326347165l0.00000042487,-33.528075456369Z" style="fill:#fff;"/></g></svg>