<?xml version="1.0" encoding="UTF-8" standalone="no"?><!DOCTYPE svg PUBLIC "-//W3C//DTD SVG 1.1//EN" "http://www.w3.org/Graphics/SVG/1.1/DTD/svg11.dtd"><svg width="100%" height="100%" viewBox="0 0 50 50" version="1.1" xmlns="http://www.w3.org/2000/svg" xmlns:xlink="http://www.w3.org/1999/xlink" xml:space="preserve" xmlns:serif="http://www.serif.com/" style="fill-rule:evenodd;clip-rule:evenodd;stroke-linejoin:round;stroke-miterlimit:2;"><rect id="Artboard1" x="0" y="0" width="50" height="50" style="fill:none;"/><g id="Artboard11" serif:id="Artboard1"><path d="M50,3.761568665504l0,42.476862668991c0,2.076066262158 -1.682997531881,3.761568665504 -3.755978494883,3.761568665504l-42.488043010235,0c-2.072980963002,0 -3.755978494883,-1.685502403347 -3.755978494883,-3.761568665504l0,-42.476862668991c0,-2.076066262158 1.682997531881,-3.761568665504 3.755978494883,-3.761568665504l42.488043010235,0c2.072980963002,0 3.755978494883,1.685502403347 3.755978494883,3.761568665504Zm-35.17000329351,15.115058164538l-0,23.679166797613l-7.254013242031,0l0,-23.679166797613l7.254013242031,0Zm11.995235706088,14.110042324191l-0,9.569124473421l-7.254013242031,0l0,-23.679166797613l7.254013242031,0l0,3.019450268715c1.825232412578,-3.295074637517 5.283810352961,-3.711858695924 7.208899647777,-3.711858695924c1.925089294816,0 8.544185770075,0 8.544185770075,10.1142899896l0,14.256182443023l-7.384798697508,0l0,-13.132113671184c0,-2.949640353232 -1.185692624342,-4.780111291786 -4.130949540408,-4.780111291786c-4.237337179935,0 -4.202712851654,3.716247555177 -4.202712851654,7.117198016265c0,0.536029607748 -0.012560153622,0.93957650394 -0.034624328281,1.227005265482Zm-15.674639867759,-26.018993496764c2.348543647858,0 4.255263117744,1.909557247787 4.255263117744,4.261596242166c0,2.352038994379 -1.906719469886,4.261596242166 -4.255263117744,4.261596242166c-2.348543647858,0 -4.255263117744,-1.909557247787 -4.255263117744,-4.261596242166c0,-2.352038994379 1.906719469886,-4.261596242166 4.255263117744,-4.261596242166Z" style="fill:#403c3a;"/></g></svg>