<?xml version="1.0" encoding="UTF-8" standalone="no"?><!DOCTYPE svg PUBLIC "-//W3C//DTD SVG 1.1//EN" "http://www.w3.org/Graphics/SVG/1.1/DTD/svg11.dtd"><svg width="100%" height="100%" viewBox="0 0 50 90" version="1.1" xmlns="http://www.w3.org/2000/svg" xmlns:xlink="http://www.w3.org/1999/xlink" xml:space="preserve" xmlns:serif="http://www.serif.com/" style="fill-rule:evenodd;clip-rule:evenodd;stroke-linejoin:round;stroke-miterlimit:2;"><rect id="Artboard2" x="0" y="-0" width="50" height="90" style="fill:none;"/><clipPath id="_clip1"><rect x="0" y="-0" width="50" height="90"/></clipPath><g clip-path="url(#_clip1)"><path d="M40.361802754507,65.723611561748c-0.077497434626,-0.154994330767 -0.069215572956,-0.33906450215 0.02188785888,-0.486472981049c0.091103431836,-0.147408478899 0.25203702087,-0.237134713336 0.42532607114,-0.237134503743l8.345337247773,0c0.224993263184,-0.000007026096 0.440429034542,0.09096441216 0.597322356664,0.252229578893c0.156893322122,0.161265166732 0.24191088567,0.379119218904 0.235721723909,0.604027339709c-0.453806949063,13.402066444102 -11.476077901127,24.143740816536 -24.987404807462,24.143740816536c-13.511326906335,0 -24.533597858399,-10.741674372434 -24.985580750948,-24.143791012059c-0.006175485543,-0.224417750225 0.078655067482,-0.44179708277 0.235203928982,-0.602712952717c0.1565488615,-0.160915869947 0.371512545483,-0.251693683936 0.596015247556,-0.251693496664c3.40117695162,-0.001800273698 16.025884583368,-0.001800273698 18.667703115502,-0.001800273698c0.268451384812,0.000045244607 0.48895935856,0.212072050558 0.499528143907,0.480315314836c0.249502155261,5.296505709015 4.629022925101,9.519687855972 9.987137562562,9.519687855972l14.460654554763,0c0.115525652967,-0.000000040847 0.222814321953,-0.059817307058 0.283549904778,-0.158089202696c0.060735582825,-0.098271895638 0.066257202439,-0.220984875989 0.014592917691,-0.324314340204l-4.396995075697,-8.793992143116Zm-20.361800942617,-3.510381402502c0.000018188853,0.151838406298 -0.068961097508,0.295458568979 -0.187486672092,0.39036162545c-0.118525574584,0.094903056471 -0.273754156141,0.130805431647 -0.421913471491,0.097583161512c-11.100721841643,-2.54956261056 -19.390601668307,-12.498237668932 -19.390601668307,-24.367839952179l0,-13.33333454126c0,-13.797876862362 11.202123137638,-25.000002264863 25,-25.000002264863l24.166662943486,0c0.460236762236,0.000000445442 0.833332240232,0.373095991039 0.833332602284,0.833332753275l0.000002189367,24.166669511588l0.000002264863,13.33333454126c0,11.869602216668 -8.289876381544,21.818277230011 -19.390753354581,24.367143482665c-0.147954000063,0.033172059161 -0.302965713908,-0.002678633475 -0.421330639501,-0.097444218119c-0.118364925593,-0.094765584644 -0.187259409771,-0.238179160158 -0.187259119692,-0.389806240996c-0.000654168391,-5.650422757274 -0.000654168391,-48.190364306911 -0.000654168391,-53.364866777823c0.00000022459,-0.315642665072 -0.178334066042,-0.604194869012 -0.460652997294,-0.745355462204l-9.056944467767,-4.528472233888c-0.103329726334,-0.05166437161 -0.226043021101,-0.046142554125 -0.324314988501,0.01459343242c-0.098271967399,0.060735986545 -0.1580889834,0.168025164833 -0.158088452382,0.283551091092l-0.000000000001,58.340552092071Z" style="fill:#403c3a;"/></g></svg>