<?xml version="1.0" encoding="UTF-8" standalone="no"?><!DOCTYPE svg PUBLIC "-//W3C//DTD SVG 1.1//EN" "http://www.w3.org/Graphics/SVG/1.1/DTD/svg11.dtd"><svg width="100%" height="100%" viewBox="0 0 209 375" version="1.1" xmlns="http://www.w3.org/2000/svg" xmlns:xlink="http://www.w3.org/1999/xlink" xml:space="preserve" xmlns:serif="http://www.serif.com/" style="fill-rule:evenodd;clip-rule:evenodd;stroke-linejoin:round;stroke-miterlimit:2;"><rect id="Artboard2" x="0" y="-0.000000000001" width="208.333333333333" height="375" style="fill:none;"/><clipPath id="_clip1"><rect x="0" y="-0.000000000001" width="208.333333333333" height="375"/></clipPath><g clip-path="url(#_clip1)"><path d="M168.174178143779,273.848381507284c-0.322905977608,-0.645809711531 -0.288398220649,-1.412768758958 0.091199412001,-2.02697075437c0.37959763265,-0.614201995413 1.050154253625,-0.988061305565 1.772191963084,-0.988060432262l34.772238532389,0.000000000001c0.937471929933,-0.000029275398 1.83512097726,0.379018384001 2.488843152766,1.050956578719c0.653722175506,0.671938194718 1.007962023623,1.579663412099 0.982173849622,2.516780582121c-1.890862287763,55.841943517091 -47.816991254695,100.598920068898 -104.114186697759,100.598920068898c-56.297195443064,0 -102.223324409996,-44.756976551808 -104.106586462285,-100.599129216912c-0.025731189762,-0.935073959272 0.327729447841,-1.840821178209 0.980016370759,-2.511303969654c0.652286922918,-0.670482791445 1.547968939514,-1.048723683067 2.483396864815,-1.048722902765c14.171570631748,-0.007501140408 66.774519097368,-0.007501140408 77.782096314593,-0.007501140407c1.118547436715,0.000188519197 2.037330660667,0.88363354399 2.081367266278,2.001313811816c1.039592313589,22.068773787564 19.287595521253,39.665366066549 41.613073177342,39.665366066549l60.252727311511,0c0.481356887362,-0.000000170194 0.928393008137,-0.249238779408 1.181457936575,-0.658705011234c0.253064928438,-0.409466231825 0.276071676828,-0.920770316622 0.060803823713,-1.35130975085l-18.320812815404,-36.64163392965Zm-84.840837260905,-14.62658917709c0.000075786889,0.632660026242 -0.287337906283,1.231077370748 -0.781194467049,1.62650677271c-0.493856560766,0.395429401962 -1.140642317255,0.545022631863 -1.75797279788,0.406596506299c-46.253007673513,-10.623177544 -80.794173617946,-52.075990287216 -80.794173617946,-101.532666467414l0,-55.555560588584c0,-57.491153593174 46.675513073493,-104.166676103594 104.166666666667,-104.166676103594l100.694428931192,0c1.917653175982,0.000001856008 3.472217667634,1.554566629329 3.472219176184,3.472219805311l0.000009122363,100.694456298283l0.000009436928,55.555560588584c0,49.456675902785 -34.541151589765,90.909488458379 -80.794805644087,101.529764511102c-0.616475000264,0.138216913172 -1.262357141283,-0.011160972812 -1.755544331255,-0.406017575497c-0.493187189973,-0.394856602685 -0.780247540711,-0.992413167323 -0.78024633205,-1.624192670817c-0.002725701628,-23.543428155307 -0.002725701628,-200.793184612127 -0.002725701628,-222.353611574265c0.000000935792,-1.315177771133 -0.743058608508,-2.517478620882 -1.919387488726,-3.105647759181l-37.737268615696,-18.868634307867c-0.430540526392,-0.215268215043 -0.941845921256,-0.192260642187 -1.351312452086,0.060805968419c-0.40946653083,0.253066610606 -0.6587040975,0.700104853473 -0.658701884925,1.18146287955l-0.000000000005,243.085633716961Z" style="fill:#fff;"/></g></svg>