<?xml version="1.0" encoding="UTF-8" standalone="no"?><!DOCTYPE svg PUBLIC "-//W3C//DTD SVG 1.1//EN" "http://www.w3.org/Graphics/SVG/1.1/DTD/svg11.dtd"><svg width="100%" height="100%" viewBox="0 0 312 51" version="1.1" xmlns="http://www.w3.org/2000/svg" xmlns:xlink="http://www.w3.org/1999/xlink" xml:space="preserve" xmlns:serif="http://www.serif.com/" style="fill-rule:evenodd;clip-rule:evenodd;stroke-linejoin:round;stroke-miterlimit:2;"><rect id="Artboard3" x="0" y="-0" width="312" height="51" style="fill:none;"/><clipPath id="_clip1"><rect x="0" y="-0" width="312" height="51"/></clipPath><g clip-path="url(#_clip1)"><g><path d="M18.524317373526,11.31846656085c0,-0.187923836548 0.065773342792,-0.347659097613 0.197320028375,-0.479205783197c0.131546685583,-0.131546685583 0.291281946649,-0.197320028375 0.479205783197,-0.197320028375l5.186697888717,0c0.187923836548,0 0.347659097613,0.065773342792 0.479205783196,0.197320028375c0.131546685584,0.131546685583 0.197320028375,0.291281946649 0.197320028375,0.479205783197l0,26.215375198405c0,4.698095913693 -1.343655431316,8.052536396069 -4.030966293948,10.06332144713c-2.687310862632,2.01078505106 -6.210882797902,3.016177576591 -10.570715805809,3.016177576591c-1.165127786595,0 -2.311463189536,-0.056377150964 -3.439006208823,-0.169131452893c-0.413432440405,-0.037584767309 -0.620148660607,-0.281885754821 -0.620148660607,-0.732902962536l0.169131452893,-4.622926379074c0,-0.413432440405 0.263093371167,-0.620148660607 0.789280113501,-0.620148660607c1.089958251976,0.112754301929 2.067162202025,0.169131452893 2.931611850144,0.169131452893c2.818857548215,0 4.895415942068,-0.554375317816 6.229675181557,-1.663125953447c1.334259239489,-1.108750635632 2.001388859233,-2.978592809281 2.001388859233,-5.609526520949l0,-0.451017207715c0,-0.112754301929 -0.03758476731,-0.17852764472 -0.112754301929,-0.197320028375c-0.075169534619,-0.018792383655 -0.150339069238,0.009396191827 -0.225508603857,0.084565726446c-1.540975459691,1.65372976162 -3.720891963644,2.48059464243 -6.53974951186,2.48059464243c-2.44300987512,0 -4.679303530038,-0.620148660607 -6.708880964753,-1.860445981822c-2.029577434715,-1.240297321215 -3.439006208823,-3.138328070347 -4.228286322323,-5.694092247395c-0.488601975024,-1.766484063548 -0.732902962536,-4.040362485776 -0.732902962536,-6.821635266682c0,-3.119535686692 0.300678138476,-5.506168410848 0.902034415429,-7.159898172468c0.751695346191,-2.292670805882 2.04836981837,-4.124928212222 3.890023416537,-5.49677221902c1.841653598168,-1.371844006798 4.002777718466,-2.057766010197 6.483372360896,-2.057766010197c2.969196617454,0 5.280659806991,0.864449648119 6.93438956861,2.593348944358c0.075169534619,0.112754301929 0.150339069238,0.150339069238 0.225508603857,0.112754301929c0.075169534619,-0.03758476731 0.112754301929,-0.112754301929 0.112754301929,-0.225508603857l0,-1.353051623144Zm-0.39464005675,18.548082667259c0.150339069238,-0.563771509643 0.253697179339,-1.174523978423 0.310074330304,-1.83225740634c0.056377150964,-0.657733427917 0.084565726446,-1.719503104412 0.084565726446,-3.185309029484c0,-1.428221157763 -0.028188575482,-2.452406066948 -0.084565726446,-3.072554727555c-0.056377150964,-0.620148660607 -0.17852764472,-1.230901129387 -0.366451481268,-1.83225740634c-0.300678138476,-1.240297321215 -0.911430607256,-2.236293654918 -1.83225740634,-2.987989001109c-0.920826799084,-0.751695346191 -2.095350777507,-1.127543019286 -3.52357193527,-1.127543019286c-1.353051623143,0 -2.499387026084,0.375847673095 -3.439006208823,1.127543019286c-0.939619182739,0.751695346191 -1.61614499431,1.747691679894 -2.029577434715,2.987989001109c-0.451017207715,1.052373484667 -0.676525811572,2.706103246287 -0.676525811572,4.96118928486c0,2.330255573191 0.187923836548,3.965192951157 0.563771509643,4.904812133895c0.375847673095,1.202712553905 1.061769676494,2.189312695781 2.057766010197,2.959800425626c0.995996333703,0.770487729846 2.189312695781,1.155731594768 3.579949086234,1.155731594768c1.465805925072,0 2.649726095322,-0.375847673095 3.551760510752,-1.127543019286c0.902034415429,-0.751695346191 1.503390692382,-1.728899296239 1.804068830858,-2.931611850144Z" style="fill:#403c3a;fill-rule:nonzero;"/><path d="M42.822869439144,10.190923541564c2.367840340501,0 4.453794926181,0.413432440405 6.257863757039,1.240297321215c1.804068830858,0.82686488081 3.194705221311,1.963804091924 4.171909171359,3.410817633341c0.977203950048,1.447013541417 1.465805925072,3.09134711121 1.465805925072,4.933000709377l0,18.999099874973c0,0.187923836548 -0.065773342792,0.347659097613 -0.197320028375,0.479205783197c-0.131546685583,0.131546685583 -0.291281946649,0.197320028375 -0.479205783197,0.197320028375l-5.186697888716,0c-0.187923836548,0 -0.347659097613,-0.065773342792 -0.479205783197,-0.197320028375c-0.131546685583,-0.131546685583 -0.197320028375,-0.291281946649 -0.197320028375,-0.479205783197l0,-1.804068830858c0,-0.112754301929 -0.037584767309,-0.17852764472 -0.112754301929,-0.197320028375c-0.075169534619,-0.018792383655 -0.150339069238,0.009396191827 -0.225508603857,0.084565726446c-1.841653598168,2.029577434715 -4.510172077145,3.044366152073 -8.005555436932,3.044366152073c-2.818857548216,0 -5.13971692958,-0.714110578881 -6.962578144093,-2.142331736644c-1.822861214513,-1.428221157763 -2.734291821769,-3.551760510752 -2.734291821769,-6.370618058967c0,-2.931611850144 1.024184909185,-5.214886464199 3.072554727555,-6.849823842164c2.04836981837,-1.634937377965 4.933000709377,-2.452406066948 8.653892673022,-2.452406066948l6.032355153181,0c0.187923836548,0 0.281885754822,-0.093961918274 0.281885754822,-0.281885754822l0,-1.353051623143c0,-1.465805925072 -0.43222482406,-2.602745136186 -1.296674472179,-3.410817633341c-0.864449648119,-0.808072497155 -2.161124120299,-1.212108745733 -3.890023416538,-1.212108745733c-1.428221157762,0 -2.583952752531,0.253697179339 -3.467194784305,0.761091538018c-0.883242031774,0.507394358679 -1.43761734959,1.212108745733 -1.663125953447,2.114143161162c-0.112754301929,0.451017207715 -0.375847673096,0.638941044262 -0.789280113501,0.563771509643l-5.468583643538,-0.676525811572c-0.187923836548,-0.03758476731 -0.347659097613,-0.103358110101 -0.479205783196,-0.197320028375c-0.131546685583,-0.093961918274 -0.178527644721,-0.21611241203 -0.140942877411,-0.366451481268c0.300678138477,-2.292670805882 1.531579267864,-4.171909171359 3.692703388162,-5.637715096431c2.161124120299,-1.465805925072 4.876623558413,-2.198708887608 8.146498314343,-2.198708887608Zm-1.353051623143,24.524060669475c1.841653598168,0 3.420213825168,-0.488601975024 4.735680681002,-1.465805925072c1.315466855834,-0.977203950048 1.973200283751,-2.217501271263 1.973200283751,-3.720891963645l0,-2.649726095323c0,-0.187923836548 -0.093961918274,-0.281885754822 -0.281885754822,-0.281885754822l-4.735680681002,0c-1.991992667406,0 -3.561156702579,0.375847673095 -4.70749210552,1.127543019286c-1.146335402941,0.751695346191 -1.719503104412,1.822861214513 -1.719503104412,3.213497604966c0,1.202712553905 0.441621015887,2.132935544817 1.324863047661,2.790668972733c0.883242031774,0.657733427917 2.020181242888,0.986600141875 3.410817633341,0.986600141875Z" style="fill:#403c3a;fill-rule:nonzero;"/><path d="M85.500372719128,18.083724676567c0.638941044262,2.104746969334 0.958411566393,4.397417775216 0.958411566393,6.878012417646c0,2.668518478977 -0.35705528944,5.017566435824 -1.071165868322,7.047143870539c-0.82686488081,2.48059464243 -2.161124120299,4.416210158871 -4.002777718466,5.806846549324c-1.841653598168,1.390636390453 -4.09673963674,2.08595458568 -6.765258115717,2.08595458568c-2.630933711668,0 -4.792057831967,-0.995996333703 -6.483372360896,-2.987989001109c-0.075169534619,-0.112754301929 -0.150339069238,-0.150339069238 -0.225508603857,-0.112754301929c-0.075169534619,0.03758476731 -0.112754301929,0.112754301929 -0.112754301929,0.225508603857l0,1.747691679894c0,0.187923836548 -0.065773342792,0.347659097613 -0.197320028375,0.479205783197c-0.131546685583,0.131546685583 -0.291281946649,0.197320028375 -0.479205783197,0.197320028375l-5.186697888717,0c-0.187923836548,0 -0.347659097613,-0.065773342792 -0.479205783196,-0.197320028375c-0.131546685583,-0.131546685583 -0.197320028375,-0.291281946649 -0.197320028375,-0.479205783197l0,-38.110954051875c0,-0.187923836548 0.065773342792,-0.347659097613 0.197320028375,-0.479205783197c0.131546685583,-0.131546685583 0.291281946649,-0.197320028375 0.479205783196,-0.197320028375l5.186697888717,0c0.187923836548,0 0.347659097613,0.065773342792 0.479205783197,0.197320028375c0.131546685583,0.131546685583 0.197320028375,0.291281946649 0.197320028375,0.479205783197l0,12.233841759256c0,0.112754301929 0.037584767309,0.187923836548 0.112754301929,0.225508603857c0.075169534619,0.03758476731 0.150339069238,0.018792383655 0.225508603857,-0.056377150964c1.61614499431,-1.916823132787 3.758476730954,-2.87523469918 6.426995209931,-2.87523469918c2.781272780906,0 5.083339778615,0.695318195226 6.906200993128,2.085954585679c1.822861214513,1.390636390453 3.166516645829,3.326251906894 4.030966293948,5.806846549324Zm-7.103521021504,13.474139080471c0.902034415429,-1.578560227001 1.353051623144,-3.739684347299 1.353051623144,-6.483372360896c0,-2.931611850144 -0.563771509643,-5.224282656026 -1.691314528929,-6.878012417646c-1.014788717358,-1.578560227001 -2.518179409739,-2.367840340501 -4.510172077145,-2.367840340501c-1.841653598168,0 -3.251082372275,0.82686488081 -4.228286322324,2.48059464243c-0.939619182738,1.540975459691 -1.409428774107,3.777269114609 -1.409428774107,6.708880964753c0,2.894027082835 0.432224824059,5.073943586788 1.296674472179,6.53974951186c0.977203950048,1.804068830858 2.44300987512,2.706103246287 4.397417775216,2.706103246287c1.052373484667,0 1.991992667405,-0.234904795685 2.818857548215,-0.704714387054c0.82686488081,-0.469809591369 1.484598308727,-1.136939211114 1.973200283751,-2.001388859233Z" style="fill:#403c3a;fill-rule:nonzero;"/><path d="M104.724981197958,39.901682099756c-2.969196617454,0 -5.515564602675,-0.751695346191 -7.639103955664,-2.255086038572c-2.123539352989,-1.503390692382 -3.617533853543,-3.589345278061 -4.481983501663,-6.257863757039c-0.638941044262,-2.029577434715 -0.958411566393,-4.171909171359 -0.958411566393,-6.426995209931c0,-2.405425107811 0.300678138477,-4.547756844455 0.902034415429,-6.426995209932c0.864449648119,-2.630933711668 2.367840340501,-4.679303530038 4.510172077145,-6.14510945511c2.142331736644,-1.465805925072 4.716888297348,-2.198708887608 7.723669682111,-2.198708887608c2.856442315525,0 5.327640766128,0.732902962536 7.413595351807,2.198708887608c2.08595458568,1.465805925072 3.561156702579,3.495383359787 4.425606350699,6.088732304146c0.676525811572,1.804068830858 1.014788717358,3.946400567502 1.014788717358,6.426995209932c0,2.367840340501 -0.319470522131,4.510172077145 -0.958411566393,6.426995209931c-0.864449648119,2.668518478977 -2.349047956846,4.763869256484 -4.453794926181,6.286052332521c-2.104746969334,1.522183076036 -4.604133995419,2.283274614055 -7.498161078253,2.283274614055Zm0,-5.637715096431c1.390636390453,0 2.583952752531,-0.39464005675 3.579949086234,-1.183920170251c0.995996333702,-0.7892801135 1.719503104411,-1.898030749132 2.170520312126,-3.326251906894c0.375847673095,-1.240297321215 0.563771509644,-2.818857548216 0.563771509644,-4.735680681002c0,-2.029577434715 -0.187923836548,-3.608137661716 -0.563771509644,-4.735680681002c-0.413432440405,-1.428221157763 -1.127543019286,-2.527575601567 -2.142331736643,-3.298063331412c-1.014788717358,-0.770487729846 -2.255086038573,-1.155731594768 -3.720891963645,-1.155731594768c-1.390636390453,0 -2.593348944359,0.385243864923 -3.608137661716,1.155731594768c-1.014788717358,0.770487729846 -1.747691679894,1.86984217365 -2.198708887609,3.298063331412c-0.375847673095,1.315466855834 -0.563771509643,2.894027082835 -0.563771509643,4.735680681002c0,1.841653598168 0.187923836548,3.420213825168 0.563771509643,4.735680681002c0.413432440405,1.428221157762 1.136939211114,2.536971793394 2.170520312126,3.326251906894c1.033581101012,0.7892801135 2.283274614054,1.183920170251 3.749080539126,1.183920170251Z" style="fill:#403c3a;fill-rule:nonzero;"/><path d="M137.254597304366,10.303677843493c1.202712553905,0 2.255086038572,0.244300987512 3.157120454001,0.732902962536c0.300678138476,0.150339069238 0.413432440405,0.43222482406 0.338262905786,0.845657264465l-0.958411566394,5.073943586788c-0.037584767309,0.451017207715 -0.300678138476,0.582563893298 -0.7892801135,0.39464005675c-0.563771509643,-0.187923836548 -1.22150493756,-0.281885754822 -1.973200283751,-0.281885754822c-0.488601975024,0 -0.86444964812,0.018792383655 -1.127543019286,0.056377150964c-1.578560227001,0.075169534619 -2.894027082835,0.629544852435 -3.946400567502,1.663125953447c-1.052373484667,1.033581101012 -1.578560227001,2.377236532329 -1.578560227001,4.030966293948l0,15.9547337229c0,0.187923836548 -0.065773342792,0.347659097613 -0.197320028375,0.479205783197c-0.131546685583,0.131546685583 -0.291281946649,0.197320028375 -0.479205783196,0.197320028375l-5.186697888716,0c-0.187923836548,0 -0.347659097613,-0.065773342792 -0.479205783197,-0.197320028375c-0.131546685583,-0.131546685583 -0.197320028375,-0.291281946649 -0.197320028375,-0.479205783197l0,-27.45567251962c0,-0.187923836548 0.065773342792,-0.347659097613 0.197320028375,-0.479205783197c0.131546685584,-0.131546685583 0.291281946649,-0.197320028375 0.479205783197,-0.197320028375l5.186697888716,0c0.187923836548,0 0.347659097613,0.065773342792 0.479205783196,0.197320028375c0.131546685584,0.131546685583 0.197320028375,0.291281946649 0.197320028375,0.479205783197l0,2.536971793394c0,0.150339069238 0.028188575482,0.234904795685 0.084565726447,0.253697179339c0.056377150964,0.018792383655 0.122150493756,-0.028188575482 0.197320028375,-0.140942877411c1.578560227001,-2.44300987512 3.777269114609,-3.66451481268 6.596126662825,-3.66451481268Z" style="fill:#403c3a;fill-rule:nonzero;"/><path d="M147.007844421192,39.450664892042c-0.375847673095,0 -0.563771509643,-0.187923836548 -0.563771509643,-0.563771509643l0,-38.336462655732c0,-0.375847673095 0.187923836548,-0.563771509643 0.563771509643,-0.563771509643l1.860445981822,0c0.375847673095,0 0.563771509643,0.187923836548 0.563771509643,0.563771509643l0,38.336462655732c0,0.375847673095 -0.187923836548,0.563771509643 -0.563771509643,0.563771509643l-1.860445981822,0Z" style="fill:#403c3a;fill-rule:nonzero;"/><path d="M168.600293240524,10.585563598314c3.30745952324,0 5.825638932979,0.855053456292 7.554538229218,2.565160368876c1.728899296239,1.710106912584 2.593348944358,4.012173910294 2.593348944358,6.906200993128l0,18.82996842208c0,0.375847673095 -0.187923836548,0.563771509643 -0.563771509643,0.563771509643l-1.860445981823,0c-0.375847673095,0 -0.563771509643,-0.187923836548 -0.563771509643,-0.563771509643l0,-2.649726095323c0,-0.075169534619 -0.028188575482,-0.131546685583 -0.084565726446,-0.169131452893c-0.056377150964,-0.03758476731 -0.122150493756,-0.018792383655 -0.197320028375,0.056377150964c-0.977203950048,1.240297321215 -2.245689846745,2.179916503953 -3.805457690091,2.818857548216c-1.559767843346,0.638941044262 -3.298063331412,0.958411566393 -5.214886464199,0.958411566393c-2.593348944358,0 -4.792057831966,-0.657733427917 -6.596126662825,-1.973200283751c-1.804068830857,-1.315466855834 -2.706103246287,-3.326251906894 -2.706103246287,-6.032355153181c0,-2.781272780906 1.033581101012,-4.979981668514 3.100743303037,-6.596126662824c2.067162202025,-1.61614499431 4.904812133895,-2.424217491465 8.512949795611,-2.424217491465l6.765258115717,0c0.150339069238,0 0.225508603857,-0.075169534619 0.225508603857,-0.225508603857l0,-2.536971793394c0,-2.104746969334 -0.591960085125,-3.777269114609 -1.775880255376,-5.017566435824c-1.183920170251,-1.240297321215 -2.997385192936,-1.860445981822 -5.440395068056,-1.860445981822c-1.916823132787,0 -3.495383359787,0.39464005675 -4.735680681002,1.183920170251c-1.240297321215,0.7892801135 -2.010785051061,1.841653598168 -2.311463189537,3.157120454001c-0.112754301929,0.375847673095 -0.338262905786,0.544979125988 -0.676525811572,0.507394358679l-1.973200283751,-0.281885754821c-0.413432440405,-0.075169534619 -0.582563893298,-0.225508603857 -0.507394358679,-0.451017207714c0.338262905786,-2.029577434715 1.43761734959,-3.66451481268 3.298063331412,-4.904812133895c1.860445981823,-1.240297321215 4.181305363187,-1.860445981822 6.962578144093,-1.860445981822Zm-1.634937377965,26.722769557084c2.367840340501,0 4.425606350698,-0.582563893298 6.173298030592,-1.747691679894c1.747691679894,-1.165127786596 2.62153751984,-2.781272780906 2.62153751984,-4.848434982931l0,-5.130320737752c0,-0.150339069238 -0.075169534619,-0.225508603857 -0.225508603857,-0.225508603857l-6.483372360896,0c-2.668518478978,0 -4.820246407448,0.563771509643 -6.455183785414,1.691314528929c-1.634937377965,1.127543019286 -2.452406066947,2.687310862632 -2.452406066947,4.679303530038c0,1.841653598167 0.638941044262,3.23228998862 1.916823132787,4.171909171359c1.277882088525,0.939619182739 2.91281946649,1.409428774108 4.904812133895,1.409428774108Z" style="fill:#403c3a;fill-rule:nonzero;"/><path d="M188.275918927069,39.450664892042c-0.375847673096,0 -0.563771509644,-0.187923836548 -0.563771509644,-0.563771509643l0,-38.336462655732c0,-0.375847673095 0.187923836548,-0.563771509643 0.563771509644,-0.563771509643l1.860445981822,0c0.375847673095,0 0.563771509643,0.187923836548 0.563771509643,0.563771509643l0,24.073043461761c0,0.075169534619 0.028188575482,0.131546685583 0.084565726446,0.169131452893c0.056377150965,0.03758476731 0.122150493756,0.018792383655 0.197320028375,-0.056377150964l13.023121872756,-13.417761929506c0.187923836548,-0.187923836548 0.413432440405,-0.281885754821 0.676525811572,-0.281885754821l2.255086038573,0c0.225508603857,0 0.366451481268,0.065773342792 0.422828632232,0.197320028375c0.056377150964,0.131546685583 0.009396191827,0.291281946649 -0.140942877411,0.479205783197l-7.159898172468,7.667292531146c-0.075169534619,0.075169534619 -0.093961918274,0.169131452893 -0.056377150964,0.281885754822l8.682081248504,19.111854176902l0.056377150964,0.225508603857c0,0.300678138476 -0.169131452893,0.451017207715 -0.507394358679,0.451017207715l-1.973200283751,0c-0.300678138476,0 -0.507394358679,-0.150339069238 -0.620148660607,-0.451017207715l-7.667292531146,-17.307785346044c-0.075169534619,-0.150339069238 -0.169131452893,-0.169131452893 -0.281885754821,-0.056377150964l-6.878012417646,7.103521021503c-0.075169534619,0.075169534619 -0.112754301929,0.169131452893 -0.112754301929,0.281885754821l0,9.866001418755c0,0.375847673095 -0.187923836548,0.563771509643 -0.563771509643,0.563771509643l-1.860445981822,0Z" style="fill:#403c3a;fill-rule:nonzero;"/><path d="M224.526426997121,10.585563598314c3.30745952324,0 5.825638932979,0.855053456292 7.554538229218,2.565160368876c1.728899296239,1.710106912584 2.593348944358,4.012173910294 2.593348944358,6.906200993128l0,18.82996842208c0,0.375847673095 -0.187923836548,0.563771509643 -0.563771509643,0.563771509643l-1.860445981822,0c-0.375847673095,0 -0.563771509643,-0.187923836548 -0.563771509643,-0.563771509643l0,-2.649726095323c0,-0.075169534619 -0.028188575482,-0.131546685583 -0.084565726446,-0.169131452893c-0.056377150964,-0.03758476731 -0.122150493756,-0.018792383655 -0.197320028375,0.056377150964c-0.977203950048,1.240297321215 -2.245689846745,2.179916503953 -3.805457690091,2.818857548216c-1.559767843346,0.638941044262 -3.298063331412,0.958411566393 -5.214886464199,0.958411566393c-2.593348944359,0 -4.792057831967,-0.657733427917 -6.596126662825,-1.973200283751c-1.804068830858,-1.315466855834 -2.706103246287,-3.326251906894 -2.706103246287,-6.032355153181c0,-2.781272780906 1.033581101013,-4.979981668514 3.100743303037,-6.596126662824c2.067162202025,-1.61614499431 4.904812133895,-2.424217491465 8.512949795611,-2.424217491465l6.765258115718,0c0.150339069238,0 0.225508603857,-0.075169534619 0.225508603857,-0.225508603857l0,-2.536971793394c0,-2.104746969334 -0.591960085125,-3.777269114609 -1.775880255376,-5.017566435824c-1.183920170251,-1.240297321215 -2.997385192936,-1.860445981822 -5.440395068056,-1.860445981822c-1.916823132786,0 -3.495383359787,0.39464005675 -4.735680681002,1.183920170251c-1.240297321215,0.7892801135 -2.010785051061,1.841653598168 -2.311463189537,3.157120454001c-0.112754301929,0.375847673095 -0.338262905786,0.544979125988 -0.676525811572,0.507394358679l-1.973200283751,-0.281885754821c-0.413432440405,-0.075169534619 -0.582563893298,-0.225508603857 -0.507394358679,-0.451017207714c0.338262905786,-2.029577434715 1.43761734959,-3.66451481268 3.298063331412,-4.904812133895c1.860445981823,-1.240297321215 4.181305363187,-1.860445981822 6.962578144093,-1.860445981822Zm-1.634937377965,26.722769557084c2.367840340501,0 4.425606350698,-0.582563893298 6.173298030592,-1.747691679894c1.747691679894,-1.165127786596 2.62153751984,-2.781272780906 2.62153751984,-4.848434982931l0,-5.130320737752c0,-0.150339069238 -0.075169534619,-0.225508603857 -0.225508603857,-0.225508603857l-6.483372360896,0c-2.668518478978,0 -4.820246407448,0.563771509643 -6.455183785414,1.691314528929c-1.634937377965,1.127543019286 -2.452406066948,2.687310862632 -2.452406066948,4.679303530038c0,1.841653598167 0.638941044263,3.23228998862 1.916823132787,4.171909171359c1.277882088524,0.939619182739 2.912819466489,1.409428774108 4.904812133895,1.409428774108Z" style="fill:#403c3a;fill-rule:nonzero;"/><path d="M255.308351423635,13.009781089779c0,0.375847673095 -0.187923836548,0.563771509643 -0.563771509643,0.563771509643l-6.596126662825,0c-0.150339069238,0 -0.225508603857,0.075169534619 -0.225508603857,0.225508603857l0,17.815179704723c0,1.916823132787 0.43222482406,3.260478564103 1.296674472179,4.030966293948c0.864449648119,0.770487729846 2.255086038573,1.155731594768 4.171909171359,1.155731594768l1.296674472179,0c0.375847673095,0 0.563771509643,0.187923836548 0.563771509643,0.563771509643l0,1.522183076036c0,0.375847673095 -0.187923836548,0.563771509643 -0.563771509643,0.563771509643l-1.69131452893,0.056377150964c-2.630933711668,0 -4.613530187246,-0.507394358679 -5.947789426735,-1.522183076036c-1.334259239489,-1.014788717358 -2.020181242888,-2.87523469918 -2.057766010198,-5.581337945467l0,-18.604459818223c0,-0.150339069238 -0.075169534619,-0.225508603857 -0.225508603857,-0.225508603857l-3.382629057859,0c-0.375847673095,0 -0.563771509643,-0.187923836548 -0.563771509643,-0.563771509643l0,-1.409428774108c0,-0.375847673096 0.187923836548,-0.563771509643 0.563771509643,-0.563771509643l3.382629057859,0c0.150339069238,0 0.225508603857,-0.075169534619 0.225508603857,-0.225508603857l0,-6.426995209932c0,-0.375847673095 0.187923836548,-0.563771509643 0.563771509643,-0.563771509643l1.804068830858,0c0.375847673095,0 0.563771509643,0.187923836548 0.563771509643,0.563771509643l0,6.426995209932c0,0.150339069238 0.075169534619,0.225508603857 0.225508603857,0.225508603857l6.596126662825,0c0.375847673095,0 0.563771509643,0.187923836548 0.563771509643,0.563771509643l0,1.409428774108Z" style="fill:#403c3a;fill-rule:nonzero;"/><path d="M273.010776826429,39.901682099756c-2.630933711668,0 -4.88601975024,-0.695318195226 -6.765258115718,-2.08595458568c-1.879238365477,-1.390636390453 -3.157120454001,-3.251082372275 -3.833646265573,-5.581337945467c-0.413432440405,-1.503390692382 -0.620148660607,-3.852438649228 -0.620148660607,-7.047143870539c0,-3.194705221311 0.206716220202,-5.524960794502 0.620148660607,-6.990766719575c0.676525811572,-2.330255573192 1.945011708269,-4.181305363187 3.805457690091,-5.553149369985c1.860445981823,-1.371844006798 4.143720595877,-2.057766010197 6.849823842164,-2.057766010197c2.630933711667,0 4.895415942067,0.695318195226 6.793446691199,2.085954585679c1.898030749132,1.390636390453 3.166516645829,3.232289988621 3.805457690091,5.524960794503c0.225508603858,0.864449648119 0.375847673096,1.83225740634 0.451017207715,2.903423274662c0.075169534619,1.071165868322 0.112754301928,2.433613683293 0.112754301928,4.087343444913c0,1.728899296239 -0.037584767309,3.119535686692 -0.112754301928,4.171909171359c-0.075169534619,1.052373484667 -0.225508603857,2.01078505106 -0.451017207715,2.87523469918c-0.638941044262,2.330255573192 -1.907426940959,4.190701555014 -3.805457690091,5.581337945467c-1.898030749132,1.390636390453 -4.181305363186,2.08595458568 -6.849823842164,2.08595458568Zm0,-2.649726095323c1.991992667406,0 3.692703388162,-0.554375317816 5.10213216227,-1.663125953447c1.409428774108,-1.108750635631 2.320859381364,-2.565160368876 2.734291821769,-4.369229199734c0.263093371167,-1.014788717358 0.39464005675,-3.006781384763 0.39464005675,-5.975978002217c0,-3.006781384763 -0.112754301929,-4.998774052169 -0.338262905786,-5.975978002217c-0.413432440405,-1.841653598168 -1.324863047661,-3.30745952324 -2.734291821769,-4.397417775216c-1.409428774108,-1.089958251977 -3.128931878519,-1.634937377965 -5.158509313234,-1.634937377965c-2.029577434715,0 -3.739684347299,0.544979125988 -5.130320737753,1.634937377965c-1.390636390453,1.089958251977 -2.292670805882,2.555764177049 -2.706103246287,4.397417775216c-0.263093371167,1.165127786596 -0.39464005675,3.157120454001 -0.39464005675,5.975978002217c0,2.818857548216 0.131546685584,4.810850215621 0.39464005675,5.975978002217c0.413432440405,1.841653598168 1.315466855834,3.30745952324 2.706103246287,4.397417775216c1.390636390453,1.089958251977 3.100743303038,1.634937377965 5.130320737753,1.634937377965Z" style="fill:#403c3a;fill-rule:nonzero;"/><path d="M301.988632422085,39.732550646863c-2.029577434715,0 -3.824250073746,-0.328866713958 -5.384017917092,-0.986600141875c-1.559767843346,-0.657733427917 -2.771876589079,-1.550371651519 -3.636326237198,-2.677914670805c-0.864449648119,-1.127543019286 -1.296674472179,-2.367840340501 -1.296674472179,-3.720891963645l0,-0.732902962536c0,-0.375847673096 0.187923836548,-0.563771509643 0.563771509643,-0.563771509643l1.747691679894,0c0.375847673095,0 0.563771509643,0.187923836548 0.563771509643,0.563771509643l0,0.620148660607c0,1.390636390453 0.695318195226,2.583952752531 2.085954585679,3.579949086234c1.390636390453,0.995996333703 3.157120454001,1.493994500554 5.299452190645,1.493994500554c2.104746969334,0 3.814853881919,-0.507394358679 5.130320737752,-1.522183076036c1.315466855834,-1.014788717358 1.973200283751,-2.273878422227 1.973200283751,-3.777269114609c0,-1.052373484667 -0.338262905786,-1.916823132787 -1.014788717358,-2.593348944358c-0.676525811572,-0.676525811572 -1.475202116899,-1.193316362078 -2.396028915983,-1.550371651519c-0.920826799084,-0.357055289441 -2.30206699771,-0.817468688983 -4.143720595877,-1.381240198626c-2.104746969334,-0.638941044262 -3.796061498264,-1.240297321215 -5.073943586788,-1.804068830858c-1.277882088524,-0.563771509643 -2.358444148674,-1.362447814971 -3.241686180448,-2.396028915983c-0.883242031774,-1.033581101012 -1.324863047661,-2.339651765019 -1.324863047661,-3.91821199202c0,-2.292670805882 0.911430607257,-4.124928212222 2.734291821769,-5.49677221902c1.822861214513,-1.371844006798 4.218890130496,-2.057766010197 7.18808674795,-2.057766010197c1.991992667406,0 3.749080539127,0.328866713959 5.271263615163,0.986600141876c1.522183076037,0.657733427917 2.706103246287,1.550371651519 3.551760510752,2.677914670805c0.845657264465,1.127543019286 1.268485896697,2.405425107811 1.268485896697,3.833646265573l0,0.169131452893c0,0.375847673095 -0.187923836548,0.563771509643 -0.563771509643,0.563771509643l-1.747691679894,0c-0.375847673095,0 -0.563771509643,-0.187923836548 -0.563771509643,-0.563771509643l0,-0.169131452893c0,-1.428221157763 -0.667129619745,-2.62153751984 -2.001388859233,-3.579949086234c-1.334259239488,-0.958411566393 -3.091347111209,-1.43761734959 -5.271263615163,-1.43761734959c-2.104746969334,0 -3.796061498264,0.441621015887 -5.073943586788,1.324863047661c-1.277882088524,0.883242031774 -1.916823132787,2.076558393852 -1.916823132787,3.579949086234c0,1.428221157763 0.591960085125,2.499387026084 1.775880255376,3.213497604966c1.18392017025,0.714110578881 3.034969960245,1.447013541417 5.553149369984,2.198708887608c2.179916503954,0.638941044262 3.91821199202,1.240297321215 5.214886464199,1.804068830858c1.296674472179,0.563771509643 2.414821299638,1.362447814971 3.354440482377,2.396028915983c0.939619182738,1.033581101012 1.409428774107,2.377236532328 1.409428774107,4.030966293948c0,2.367840340501 -0.911430607256,4.27526728146 -2.734291821769,5.722280822878c-1.822861214513,1.447013541417 -4.256474897806,2.170520312126 -7.300841049879,2.170520312126Z" style="fill:#403c3a;fill-rule:nonzero;"/><path d="M51.241686082167,1.986659175154l0,1.411607989538c0,1.10383002588 -0.89616999896,1.999999958131 -2.000000107007,1.999999958131l-10.507548733155,0c-1.103830108047,0 -2.000000107007,-0.896169932251 -2.000000107007,-1.999999958131l0,-1.411607989538c0,-1.10383002588 0.89616999896,-1.999999958131 2.000000107007,-1.999999958131l10.507548733155,0c1.103830108047,0 2.000000107007,0.896169932251 2.000000107007,1.999999958131Z" style="fill:#403c3a;"/></g></g></svg>