<?xml version="1.0" encoding="UTF-8" standalone="no"?><!DOCTYPE svg PUBLIC "-//W3C//DTD SVG 1.1//EN" "http://www.w3.org/Graphics/SVG/1.1/DTD/svg11.dtd"><svg width="100%" height="100%" viewBox="0 0 1300 213" version="1.1" xmlns="http://www.w3.org/2000/svg" xmlns:xlink="http://www.w3.org/1999/xlink" xml:space="preserve" xmlns:serif="http://www.serif.com/" style="fill-rule:evenodd;clip-rule:evenodd;stroke-linejoin:round;stroke-miterlimit:2;"><rect id="Artboard3" x="0" y="0" width="1300" height="212.499999999999" style="fill:none;"/><clipPath id="_clip1"><rect x="0" y="0" width="1300" height="212.499999999999"/></clipPath><g clip-path="url(#_clip1)"><g><path d="M77.184655723026,47.160277336875c0,-0.783015985615 0.274055594966,-1.448579573388 0.822166784896,-1.996690763319c0.54811118993,-0.54811118993 1.213674777704,-0.822166784896 1.996690763319,-0.822166784896l21.611241202987,0c0.783015985615,0 1.448579573389,0.274055594966 1.996690763319,0.822166784896c0.54811118993,0.548111189931 0.822166784896,1.213674777704 0.822166784896,1.996690763319l0,109.230729993354c0,19.575399640386 -5.59856429715,33.552234983621 -16.79569289145,41.930506029707c-11.197128594302,8.378271046086 -25.878678324591,12.567406569128 -44.04464919087,12.567406569128c-4.854699110814,0 -9.631096623069,-0.234904795685 -14.329192536762,-0.704714387055c-1.722635168354,-0.156603197122 -2.58395275253,-1.174523978423 -2.58395275253,-3.0537623439l0.704714387054,-19.26219324614c0,-1.722635168354 1.096222379861,-2.583952752531 3.288667139585,-2.583952752531c4.541492716569,0.469809591369 8.61317584177,0.704714387054 12.215049375601,0.704714387054c11.745239784231,0 20.397566425282,-2.309897157565 25.956979923152,-6.929691472697c5.559413497869,-4.619794315131 8.339120246805,-12.410803372004 8.339120246805,-23.37302717062l0,-1.879238365477c0,-0.46980959137 -0.156603197125,-0.743865186334 -0.46980959137,-0.822166784897c-0.313206394245,-0.078301598561 -0.626412788493,0.039150799281 -0.939619182738,0.352357193527c-6.420731082047,6.890540673416 -15.503716515186,10.335811010124 -27.248956299418,10.335811010124c-10.179207813,0 -19.497098041825,-2.583952752531 -27.95367068647,-7.751858257593c-8.456572644647,-5.167905505062 -14.329192536764,-13.076366959778 -17.617859676348,-23.725384364148c-2.035841562601,-7.360350264785 -3.0537623439,-16.834843690732 -3.0537623439,-28.423480277841c0,-12.998065361216 1.252825576984,-22.942368378533 3.758476730954,-29.832909051948c3.132063942463,-9.552795024509 8.534874243208,-17.187200884259 16.208430902239,-22.903217579252c7.673556659031,-5.716016694993 16.678240493609,-8.574025042489 27.014051503733,-8.574025042489c12.371652572723,0 22.002749195794,3.601873533831 28.89328986921,10.805620601493c0.313206394245,0.469809591369 0.626412788493,0.626412788492 0.939619182738,0.469809591369c0.313206394245,-0.156603197123 0.46980959137,-0.469809591369 0.46980959137,-0.939619182739l0,-5.637715096431Zm-1.644333569793,77.283677780244c0.626412788493,-2.349047956846 1.057071580581,-4.893849910096 1.291976376266,-7.634405859751c0.234904795685,-2.740555949654 0.352357193527,-7.164596268381 0.352357193527,-13.272120956181c0,-5.950921490678 -0.117452397842,-10.218358612282 -0.352357193527,-12.802311364813c-0.234904795685,-2.583952752531 -0.743865186336,-5.128754705781 -1.526881171951,-7.63440585975c-1.252825576985,-5.167905505062 -3.797627530234,-9.317890228824 -7.63440585975,-12.449954171286c-3.836778329516,-3.132063942462 -8.730628239612,-4.698095913692 -14.68154973029,-4.698095913692c-5.637715096431,0 -10.414112608685,1.566031971231 -14.329192536763,4.698095913692c-3.915079928078,3.132063942462 -6.733937476293,7.282048666224 -8.456572644647,12.449954171286c-1.879238365476,4.384889519446 -2.818857548215,11.275430192862 -2.818857548215,20.671622020247c0,9.709398221632 0.783015985615,16.521637296486 2.349047956846,20.436717224563c1.56603197123,5.011302307939 4.424040318727,9.12213623242 8.574025042488,12.332501773443c4.149984723763,3.210365541023 9.12213623242,4.815548311535 14.916454525975,4.815548311535c6.1075246878,0 11.040525397177,-1.566031971231 14.799002128132,-4.698095913693c3.758476730953,-3.132063942462 6.264127884922,-7.203747067662 7.516953461907,-12.215049375601Z" style="fill:#fff;fill-rule:nonzero;"/><path d="M178.428622663101,42.462181423183c9.866001418755,0 18.557478859087,1.722635168353 26.074432320995,5.167905505062c7.516953461907,3.445270336708 13.311271755463,8.182517049681 17.382954880663,14.21174013892c4.071683125199,6.029223089239 6.107524687799,12.880612963374 6.107524687799,20.554169622405l0,79.162916145721c0,0.783015985616 -0.274055594964,1.448579573389 -0.822166784896,1.996690763319c-0.54811118993,0.548111189931 -1.213674777704,0.822166784897 -1.996690763319,0.822166784897l-21.611241202987,0c-0.783015985615,0 -1.448579573387,-0.274055594965 -1.996690763319,-0.822166784897c-0.54811118993,-0.54811118993 -0.822166784896,-1.213674777704 -0.822166784896,-1.996690763319l0,-7.516953461908c0,-0.469809591369 -0.156603197123,-0.743865186334 -0.46980959137,-0.822166784896c-0.313206394245,-0.078301598562 -0.626412788492,0.03915079928 -0.939619182738,0.352357193527c-7.673556659032,8.456572644646 -18.792383654771,12.68485896697 -33.356480987217,12.68485896697c-11.745239784232,0 -21.415487206583,-2.975460745339 -29.010742267052,-8.926382236016c-7.595255060471,-5.950921490677 -11.392882590706,-14.799002128131 -11.392882590706,-26.544241912363c0,-12.2150493756 4.267437121605,-21.728693600829 12.802311364812,-28.540932675683c8.534874243209,-6.812239074854 20.554169622405,-10.218358612281 36.057886137591,-10.218358612281l25.134813138257,0c0.783015985615,0 1.174523978423,-0.391507992807 1.174523978423,-1.174523978423l0,-5.637715096431c0,-6.1075246878 -1.800936766916,-10.844771400774 -5.402810300748,-14.211740138921c-3.601873533829,-3.366968738147 -9.004683834577,-5.050453107219 -16.208430902238,-5.050453107219c-5.950921490678,0 -10.766469802213,1.05707158058 -14.446644934606,3.171214741742c-3.680175132393,2.114143161162 -5.990072289958,5.05045310722 -6.929691472697,8.808929838174c-0.46980959137,1.879238365477 -1.566031971231,2.662254351093 -3.288667139585,2.349047956846l-22.78576518141,-2.818857548215c-0.783015985615,-0.156603197123 -1.448579573389,-0.430658792089 -1.996690763319,-0.822166784896c-0.54811118993,-0.391507992808 -0.743865186336,-0.900468383458 -0.587261989212,-1.52688117195c1.252825576985,-9.552795024508 6.381580282765,-17.382954880663 15.386264117344,-23.490479568463c9.004683834577,-6.1075246878 20.319264826721,-9.1612870317 33.943742976429,-9.1612870317Zm-5.637715096431,102.183586122815c7.673556659031,0 14.2508909382,-2.0358415626 19.732002837509,-6.1075246878c5.481111899308,-4.0716831252 8.221667848962,-9.239588630262 8.221667848962,-15.503716515186l0,-11.040525397178c0,-0.783015985616 -0.391507992808,-1.174523978423 -1.174523978423,-1.174523978423l-19.732002837509,0c-8.299969447524,0 -14.838152927414,1.566031971231 -19.614550439668,4.698095913692c-4.776397512253,3.132063942462 -7.16459626838,7.59525506047 -7.16459626838,13.389573354024c0,5.011302307939 1.840087566196,8.887231436736 5.520262698588,11.62778738639c3.680175132393,2.740555949654 8.417421845366,4.110833924481 14.211740138921,4.110833924481Z" style="fill:#fff;fill-rule:nonzero;"/><path d="M356.251552996368,75.348852819031c2.662254351091,8.769779038893 3.993381526638,18.322574063401 3.993381526638,28.658385073525c0,11.118826995739 -1.487730372668,20.906526815932 -4.463191118008,29.363099460579c-3.445270336708,10.335811010124 -9.004683834579,18.400875661963 -16.678240493609,24.195193955517c-7.673556659032,5.794318293554 -17.069748486416,8.691477440331 -28.188575482154,8.691477440331c-10.962223798617,0 -19.966907633196,-4.149984723762 -27.014051503733,-12.449954171285c-0.313206394247,-0.46980959137 -0.626412788493,-0.626412788492 -0.93961918274,-0.46980959137c-0.313206394247,0.156603197123 -0.46980959137,0.46980959137 -0.46980959137,0.939619182739l0,7.282048666224c0,0.783015985616 -0.274055594964,1.448579573389 -0.822166784896,1.996690763319c-0.54811118993,0.548111189931 -1.213674777702,0.822166784897 -1.996690763319,0.822166784897l-21.611241202985,0c-0.783015985617,0 -1.448579573389,-0.274055594965 -1.996690763321,-0.822166784897c-0.54811118993,-0.54811118993 -0.822166784896,-1.213674777704 -0.822166784896,-1.996690763319l0,-158.795641882811c0,-0.783015985615 0.274055594966,-1.448579573388 0.822166784896,-1.996690763319c0.548111189932,-0.548111189931 1.213674777704,-0.822166784896 1.996690763321,-0.822166784896l21.611241202985,0c0.783015985617,0 1.448579573389,0.274055594965 1.996690763319,0.822166784896c0.548111189932,0.548111189931 0.822166784896,1.213674777704 0.822166784896,1.996690763319l0,50.974340663565c0,0.469809591369 0.156603197123,0.783015985615 0.46980959137,0.939619182739c0.313206394247,0.156603197123 0.626412788493,0.078301598562 0.93961918274,-0.234904795685c6.733937476292,-7.986763053278 15.660319712308,-11.980144579916 26.779146708048,-11.980144579916c11.588636587107,0 21.180582410898,2.897159146777 28.775837471367,8.691477440331c7.595255060469,5.794318293554 13.193819357621,13.859382945393 16.795692891452,24.195193955517Zm-29.598004256264,56.142246168627c3.758476730954,-6.577334279169 5.637715096431,-15.582018113747 5.637715096431,-27.014051503733c0,-12.2150493756 -2.349047956846,-21.767844400109 -7.047143870539,-28.658385073525c-4.228286322323,-6.577334279169 -10.492414207247,-9.866001418754 -18.792383654771,-9.866001418754c-7.673556659031,0 -13.546176551146,3.445270336707 -17.617859676348,10.335811010124c-3.915079928076,6.420731082047 -5.872619892116,15.73862131087 -5.872619892116,27.953670686471c0,12.058446178478 1.800936766915,21.141431611617 5.402810300748,27.248956299417c4.071683125199,7.516953461908 10.179207813,11.275430192863 18.322574063401,11.275430192863c4.384889519446,0 8.299969447524,-0.978769982019 11.745239784232,-2.936309946058c3.445270336708,-1.957539964038 6.185826286362,-4.737246712973 8.221667848962,-8.339120246804Z" style="fill:#fff;fill-rule:nonzero;"/><path d="M436.354088324826,166.257008748984c-12.371652572723,0 -22.981519177813,-3.132063942462 -31.829599815268,-9.396191827385c-8.848080637452,-6.264127884923 -15.073057723095,-14.955605325255 -18.674931256928,-26.074432320994c-2.662254351091,-8.456572644647 -3.993381526638,-17.382954880663 -3.993381526638,-26.779146708048c0,-10.022604615877 1.252825576985,-18.948986851894 3.758476730954,-26.779146708048c3.601873533831,-10.962223798616 9.866001418754,-19.497098041825 18.792383654769,-25.604622729625c8.926382236017,-6.1075246878 19.653701238949,-9.1612870317 32.181957008796,-9.1612870317c11.901842981355,0 22.198503192198,3.0537623439 30.889980632528,9.1612870317c8.691477440332,6.1075246878 14.838152927414,14.564097332448 18.440026461245,25.369717933941c2.818857548216,7.516953461908 4.228286322323,16.443335697924 4.228286322323,26.779146708048c0,9.866001418754 -1.331127175546,18.792383654771 -3.993381526638,26.779146708048c-3.601873533831,11.11882699574 -9.787699820194,19.849455235351 -18.557478859087,26.191884718837c-8.769779038892,6.342429483485 -19.183891647577,9.513644225227 -31.242337826056,9.513644225227Zm0,-23.490479568463c5.794318293554,0 10.766469802213,-1.644333569793 14.916454525975,-4.933000709378c4.149984723761,-3.288667139585 7.16459626838,-7.908461454716 9.043834633858,-13.859382945393c1.56603197123,-5.167905505062 2.349047956846,-11.745239784232 2.349047956846,-19.732002837509c0,-8.456572644647 -0.783015985617,-15.033906923817 -2.349047956846,-19.732002837509c-1.722635168355,-5.950921490678 -4.698095913693,-10.531565006528 -8.926382236015,-13.741930547551c-4.228286322324,-3.210365541023 -9.396191827385,-4.815548311535 -15.503716515186,-4.815548311535c-5.794318293554,0 -10.805620601494,1.605182770511 -15.033906923816,4.815548311535c-4.228286322323,3.210365541023 -7.282048666224,7.791009056873 -9.161287031702,13.741930547551c-1.56603197123,5.481111899308 -2.349047956845,12.058446178478 -2.349047956845,19.732002837509c0,7.673556659031 0.783015985615,14.250890938201 2.349047956845,19.732002837509c1.722635168355,5.950921490677 4.737246712974,10.570715805809 9.04383463386,13.859382945393c4.306587920884,3.288667139585 9.513644225226,4.933000709378 15.621168913027,4.933000709378Z" style="fill:#fff;fill-rule:nonzero;"/><path d="M571.894155434858,42.931991014552c5.011302307939,0 9.396191827385,1.0179207813 13.15466855834,3.0537623439c1.252825576983,0.626412788492 1.722635168353,1.800936766915 1.409428774108,3.523571935269l-3.993381526639,21.141431611617c-0.156603197123,1.879238365477 -1.252825576985,2.427349555408 -3.288667139585,1.644333569793c-2.349047956846,-0.783015985616 -5.089603906501,-1.174523978424 -8.221667848962,-1.174523978424c-2.035841562601,0 -3.601873533831,0.078301598562 -4.698095913693,0.234904795685c-6.577334279169,0.313206394246 -12.058446178478,2.623103551812 -16.443335697924,6.929691472697c-4.384889519446,4.306587920885 -6.577334279171,9.905152218036 -6.577334279171,16.795692891451l0,66.478057178751c0,0.783015985616 -0.274055594966,1.448579573389 -0.822166784896,1.996690763319c-0.54811118993,0.548111189931 -1.213674777704,0.822166784897 -1.996690763319,0.822166784897l-21.611241202987,0c-0.783015985615,0 -1.448579573387,-0.274055594965 -1.996690763319,-0.822166784897c-0.54811118993,-0.54811118993 -0.822166784896,-1.213674777704 -0.822166784896,-1.996690763319l0,-114.398635498416c0,-0.783015985615 0.274055594966,-1.448579573388 0.822166784896,-1.996690763319c0.548111189932,-0.54811118993 1.213674777704,-0.822166784896 1.996690763319,-0.822166784896l21.611241202987,0c0.783015985615,0 1.448579573389,0.274055594966 1.996690763319,0.822166784896c0.54811118993,0.548111189931 0.822166784896,1.213674777704 0.822166784896,1.996690763319l0,10.570715805809c0,0.626412788492 0.117452397842,0.978769982019 0.352357193527,1.057071580581c0.234904795685,0.078301598562 0.508960390651,-0.117452397842 0.822166784896,-0.587261989212c6.577334279171,-10.179207813001 15.738621310871,-15.268811719501 27.483861095103,-15.268811719501Z" style="fill:#fff;fill-rule:nonzero;"/><path d="M612.532685088301,164.377770383507c-1.566031971231,0 -2.349047956846,-0.783015985616 -2.349047956846,-2.349047956847l0,-159.735261065549c0,-1.566031971231 0.783015985615,-2.349047956846 2.349047956846,-2.349047956846l7.751858257592,0c1.566031971231,0 2.349047956846,0.783015985615 2.349047956846,2.349047956846l0,159.735261065549c0,1.566031971231 -0.783015985615,2.349047956847 -2.349047956846,2.349047956847l-7.751858257592,0Z" style="fill:#fff;fill-rule:nonzero;"/><path d="M702.501221835515,44.106514992975c13.781081346831,0 24.273495554078,3.56272273455 31.477242621742,10.688168203651c7.203747067661,7.1254454691 10.805620601492,16.717391292889 10.805620601492,28.775837471367l0,78.458201758667c0,1.566031971231 -0.783015985617,2.349047956847 -2.349047956846,2.349047956847l-7.751858257592,0c-1.566031971231,0 -2.349047956848,-0.783015985616 -2.349047956848,-2.349047956847l0,-11.040525397178c0,-0.313206394246 -0.117452397842,-0.548111189931 -0.352357193526,-0.704714387054c-0.234904795685,-0.156603197123 -0.508960390649,-0.078301598562 -0.822166784897,0.234904795685c-4.071683125199,5.167905505062 -9.357041028103,9.082985433139 -15.856073708712,11.745239784232c-6.499032680607,2.662254351093 -13.741930547551,3.993381526639 -21.728693600828,3.993381526639c-10.805620601494,0 -19.966907633194,-2.740555949654 -27.483861095103,-8.221667848962c-7.516953461907,-5.481111899308 -11.275430192862,-13.859382945394 -11.275430192862,-25.134813138256c0,-11.588636587108 4.306587920884,-20.749923618809 12.919763762655,-27.483861095101c8.61317584177,-6.733937476293 20.436717224562,-10.100906214439 35.470624148378,-10.100906214439l28.188575482156,0c0.626412788493,0 0.939619182738,-0.313206394246 0.939619182738,-0.939619182739l0,-10.570715805809c0,-8.769779038892 -2.466500354687,-15.73862131087 -7.399501064065,-20.906526815932c-4.933000709378,-5.167905505062 -12.489104970566,-7.751858257593 -22.668312783568,-7.751858257593c-7.986763053277,0 -14.564097332446,1.644333569793 -19.732002837507,4.933000709377c-5.167905505063,3.288667139585 -8.378271046087,7.673556659031 -9.63109662307,13.154668558339c-0.46980959137,1.566031971231 -1.409428774108,2.270746358285 -2.818857548216,2.114143161162l-8.221667848962,-1.174523978423c-1.722635168353,-0.313206394246 -2.427349555408,-0.939619182739 -2.114143161161,-1.879238365477c1.409428774106,-8.456572644647 5.990072289958,-15.268811719501 13.741930547551,-20.436717224563c7.751858257594,-5.167905505062 17.422105679943,-7.751858257593 29.010742267052,-7.751858257593Zm-6.812239074854,111.344873154515c9.866001418754,0 18.440026461243,-2.427349555408 25.722075127467,-7.282048666224c7.282048666224,-4.854699110816 10.923072999334,-11.588636587108 10.923072999334,-20.201812428878l0,-21.376336407302c0,-0.626412788492 -0.313206394245,-0.939619182738 -0.939619182738,-0.939619182738l-27.014051503733,0c-11.118826995738,0 -20.084360031035,2.349047956846 -26.89659910589,7.047143870539c-6.812239074854,4.698095913693 -10.218358612281,11.197128594301 -10.218358612281,19.497098041825c0,7.673556659031 2.662254351093,13.467874952585 7.986763053279,17.382954880663c5.324508702184,3.915079928077 12.136747777038,5.872619892116 20.436717224562,5.872619892116Z" style="fill:#fff;fill-rule:nonzero;"/><path d="M784.482995529452,164.377770383507c-1.56603197123,0 -2.349047956846,-0.783015985616 -2.349047956846,-2.349047956847l0,-159.735261065549c0,-1.566031971231 0.783015985617,-2.349047956846 2.349047956846,-2.349047956846l7.751858257592,0c1.566031971231,0 2.349047956848,0.783015985615 2.349047956848,2.349047956846l0,100.304347757338c0,0.313206394246 0.117452397842,0.548111189931 0.352357193526,0.704714387054c0.234904795685,0.156603197123 0.508960390651,0.078301598561 0.822166784897,-0.234904795685l54.263007803149,-55.907341372943c0.783015985615,-0.783015985615 1.722635168353,-1.174523978423 2.818857548216,-1.174523978423l9.396191827385,0c0.939619182738,0 1.526881171949,0.274055594965 1.761785967634,0.822166784896c0.234904795685,0.548111189931 0.039150799281,1.213674777704 -0.587261989212,1.996690763319l-29.832909051947,31.94705221311c-0.313206394245,0.313206394246 -0.391507992808,0.704714387054 -0.234904795683,1.174523978423l36.175338535433,79.63272573709l0.234904795683,0.939619182739c0,1.252825576985 -0.704714387053,1.879238365477 -2.114143161161,1.879238365477l-8.221667848962,0c-1.252825576985,0 -2.114143161161,-0.626412788492 -2.58395275253,-1.879238365477l-31.947052213111,-72.115772275182c-0.313206394247,-0.626412788492 -0.704714387055,-0.704714387054 -1.174523978423,-0.234904795685l-28.658385073526,29.598004256263c-0.313206394247,0.313206394246 -0.469809591368,0.704714387054 -0.469809591368,1.174523978423l0,41.10833924481c0,1.566031971231 -0.783015985617,2.349047956847 -2.349047956848,2.349047956847l-7.751858257592,0Z" style="fill:#fff;fill-rule:nonzero;"/><path d="M935.52677915467,44.106514992975c13.781081346831,0 24.273495554078,3.56272273455 31.477242621741,10.688168203651c7.203747067662,7.1254454691 10.805620601492,16.717391292889 10.805620601492,28.775837471367l0,78.458201758667c0,1.566031971231 -0.783015985615,2.349047956847 -2.349047956846,2.349047956847l-7.751858257592,0c-1.566031971231,0 -2.349047956846,-0.783015985616 -2.349047956846,-2.349047956847l0,-11.040525397178c0,-0.313206394246 -0.117452397842,-0.548111189931 -0.352357193526,-0.704714387054c-0.234904795685,-0.156603197123 -0.508960390651,-0.078301598562 -0.822166784897,0.234904795685c-4.071683125199,5.167905505062 -9.357041028105,9.082985433139 -15.856073708712,11.745239784232c-6.499032680607,2.662254351093 -13.741930547552,3.993381526639 -21.728693600828,3.993381526639c-10.805620601495,0 -19.966907633196,-2.740555949654 -27.483861095103,-8.221667848962c-7.516953461907,-5.481111899308 -11.275430192863,-13.859382945394 -11.275430192863,-25.134813138256c0,-11.588636587108 4.306587920886,-20.749923618809 12.919763762657,-27.483861095101c8.613175841769,-6.733937476293 20.436717224562,-10.100906214439 35.470624148378,-10.100906214439l28.188575482156,0c0.626412788493,0 0.939619182738,-0.313206394246 0.939619182738,-0.939619182739l0,-10.570715805809c0,-8.769779038892 -2.466500354687,-15.73862131087 -7.399501064066,-20.906526815932c-4.933000709376,-5.167905505062 -12.489104970566,-7.751858257593 -22.668312783566,-7.751858257593c-7.986763053277,0 -14.564097332446,1.644333569793 -19.732002837509,4.933000709377c-5.167905505061,3.288667139585 -8.378271046086,7.673556659031 -9.63109662307,13.154668558339c-0.46980959137,1.566031971231 -1.409428774108,2.270746358285 -2.818857548215,2.114143161162l-8.221667848962,-1.174523978423c-1.722635168355,-0.313206394246 -2.42734955541,-0.939619182739 -2.114143161161,-1.879238365477c1.409428774106,-8.456572644647 5.990072289957,-15.268811719501 13.741930547549,-20.436717224563c7.751858257594,-5.167905505062 17.422105679945,-7.751858257593 29.010742267054,-7.751858257593Zm-6.812239074854,111.344873154515c9.866001418754,0 18.440026461243,-2.427349555408 25.722075127467,-7.282048666224c7.282048666224,-4.854699110816 10.923072999334,-11.588636587108 10.923072999334,-20.201812428878l0,-21.376336407302c0,-0.626412788492 -0.313206394245,-0.939619182738 -0.939619182738,-0.939619182738l-27.014051503733,0c-11.11882699574,0 -20.084360031036,2.349047956846 -26.89659910589,7.047143870539c-6.812239074854,4.698095913693 -10.218358612281,11.197128594301 -10.218358612281,19.497098041825c0,7.673556659031 2.662254351091,13.467874952585 7.986763053277,17.382954880663c5.324508702186,3.915079928077 12.13674777704,5.872619892116 20.436717224564,5.872619892116Z" style="fill:#fff;fill-rule:nonzero;"/><path d="M1063.784797598479,54.207421207414c0,1.566031971231 -0.783015985615,2.349047956846 -2.349047956845,2.349047956846l-27.483861095103,0c-0.626412788492,0 -0.939619182738,0.313206394246 -0.939619182738,0.939619182739l0,74.229915436344c0,7.986763053277 1.800936766915,13.585327350428 5.402810300746,16.79569289145c3.601873533831,3.210365541024 9.396191827385,4.815548311535 17.382954880663,4.815548311535l5.402810300748,0c1.566031971231,0 2.349047956846,0.783015985615 2.349047956846,2.349047956847l0,6.342429483484c0,1.566031971231 -0.783015985615,2.349047956847 -2.349047956846,2.349047956847l-7.047143870539,0.234904795685c-10.962223798617,0 -19.22304244686,-2.114143161162 -24.782455944729,-6.342429483485c-5.559413497869,-4.228286322324 -8.417421845366,-11.980144579917 -8.57402504249,-23.255574772779l0,-77.518582575929c0,-0.626412788492 -0.313206394245,-0.939619182739 -0.939619182738,-0.939619182739l-14.094287741078,0c-1.56603197123,0 -2.349047956846,-0.783015985615 -2.349047956846,-2.349047956846l0,-5.872619892115c0,-1.566031971231 0.783015985617,-2.349047956846 2.349047956846,-2.349047956846l14.094287741078,0c0.626412788493,0 0.939619182738,-0.313206394247 0.939619182738,-0.939619182739l0,-26.779146708048c0,-1.566031971231 0.783015985617,-2.349047956846 2.349047956846,-2.349047956846l7.516953461907,0c1.566031971231,0 2.349047956848,0.783015985616 2.349047956848,2.349047956846l0,26.779146708048c0,0.626412788492 0.313206394247,0.939619182739 0.939619182738,0.939619182739l27.483861095103,0c1.56603197123,0 2.349047956845,0.783015985615 2.349047956845,2.349047956846l0,5.872619892115Z" style="fill:#fff;fill-rule:nonzero;"/><path d="M1137.544903443453,166.257008748984c-10.962223798615,0 -20.358415626,-2.897159146777 -28.188575482156,-8.691477440331c-7.830159856154,-5.794318293554 -13.154668558338,-13.546176551147 -15.973526106554,-23.255574772778c-1.722635168353,-6.264127884924 -2.583952752531,-16.051827705117 -2.583952752531,-29.363099460579c0,-13.311271755462 0.861317584178,-23.020669977094 2.583952752531,-29.128194664895c2.818857548216,-9.709398221631 8.10421545112,-17.422105679943 15.856073708712,-23.138122374936c7.751858257594,-5.716016694993 17.26550248282,-8.574025042489 28.540932675684,-8.574025042489c10.962223798615,0 20.397566425281,2.897159146777 28.306027879999,8.691477440331c7.908461454716,5.794318293554 13.193819357621,13.467874952586 15.856073708712,23.020669977094c0.93961918274,3.601873533831 1.566031971231,7.634405859751 1.879238365478,12.097596977759c0.313206394245,4.463191118008 0.469809591368,10.14005701372 0.469809591368,17.030597687136c0,7.203747067662 -0.156603197123,12.998065361217 -0.469809591368,17.382954880663c-0.313206394247,4.384889519446 -0.939619182738,8.378271046086 -1.879238365478,11.980144579917c-2.662254351091,9.709398221632 -7.947612253996,17.461256479224 -15.856073708712,23.255574772778c-7.908461454717,5.794318293554 -17.422105679943,8.691477440331 -28.540932675684,8.691477440331Zm0,-11.040525397178c8.299969447524,0 15.386264117344,-2.309897157566 21.25888400946,-6.929691472697c5.872619892116,-4.619794315131 9.670247422351,-10.688168203651 11.392882590704,-18.205121665559c1.096222379862,-4.228286322324 1.644333569793,-12.528255769847 1.644333569793,-24.899908342571c0,-12.528255769847 -0.46980959137,-20.828225217371 -1.409428774108,-24.899908342571c-1.722635168353,-7.673556659031 -5.520262698588,-13.781081346832 -11.392882590704,-18.322574063401c-5.872619892116,-4.541492716569 -13.037216160497,-6.812239074854 -21.493788805145,-6.812239074854c-8.456572644645,0 -15.582018113748,2.270746358285 -21.376336407302,6.812239074854c-5.794318293552,4.541492716569 -9.552795024509,10.64901740437 -11.275430192862,18.322574063401c-1.096222379862,4.854699110816 -1.644333569791,13.154668558339 -1.644333569791,24.899908342571c0,11.745239784232 0.54811118993,20.045209231755 1.644333569791,24.899908342571c1.722635168353,7.673556659031 5.481111899309,13.781081346832 11.275430192862,18.322574063401c5.794318293554,4.54149271657 12.919763762657,6.812239074854 21.376336407302,6.812239074854Z" style="fill:#fff;fill-rule:nonzero;"/><path d="M1258.285968425353,165.55229436193c-8.456572644645,0 -15.934375307274,-1.370277974827 -22.433407987881,-4.110833924481c-6.499032680609,-2.740555949654 -11.549485787828,-6.459881881327 -15.151359321659,-11.15797779502c-3.601873533831,-4.698095913693 -5.402810300748,-9.866001418754 -5.402810300748,-15.503716515186l0,-3.0537623439c0,-1.566031971231 0.783015985617,-2.349047956846 2.349047956848,-2.349047956846l7.282048666222,0c1.566031971231,0 2.349047956848,0.783015985615 2.349047956848,2.349047956846l0,2.583952752531c0,5.794318293554 2.897159146774,10.766469802212 8.69147744033,14.916454525974c5.794318293554,4.149984723761 13.154668558338,6.224977085642 22.081050794355,6.224977085642c8.769779038894,0 15.895224507994,-2.114143161162 21.376336407302,-6.342429483485c5.481111899308,-4.228286322323 8.221667848962,-9.474493425947 8.221667848962,-15.738621310871c0,-4.384889519446 -1.409428774108,-7.986763053277 -4.228286322324,-10.805620601493c-2.818857548215,-2.818857548216 -6.14667548708,-4.972151508658 -9.983453816596,-6.459881881327c-3.836778329516,-1.487730372669 -9.59194582379,-3.406119537427 -17.26550248282,-5.755167494274c-8.769779038894,-2.662254351093 -15.816922909433,-5.167905505062 -21.141431611617,-7.516953461908c-5.324508702186,-2.349047956846 -9.826850619474,-5.676865895712 -13.507025751867,-9.983453816597c-3.680175132393,-4.306587920885 -5.520262698588,-9.748549020912 -5.520262698588,-16.325883300081c0,-9.552795024509 3.797627530235,-17.187200884259 11.392882590704,-22.903217579252c7.595255060471,-5.716016694993 17.578708877067,-8.574025042489 29.95036144979,-8.574025042489c8.299969447524,0 15.621168913029,1.370277974827 21.963598396514,4.110833924482c6.342429483484,2.740555949654 11.275430192862,6.459881881327 14.799002128131,11.15797779502c3.52357193527,4.698095913693 5.285357902905,10.022604615878 5.285357902905,15.973526106555l0,0.704714387054c0,1.566031971231 -0.783015985617,2.349047956846 -2.349047956846,2.349047956846l-7.282048666224,0c-1.566031971231,0 -2.349047956846,-0.783015985616 -2.349047956846,-2.349047956846l0,-0.704714387054c0,-5.950921490678 -2.779706748935,-10.923072999336 -8.339120246805,-14.916454525974c-5.559413497871,-3.993381526639 -12.880612963374,-5.990072289958 -21.963598396513,-5.990072289958c-8.769779038894,0 -15.816922909433,1.840087566196 -21.141431611617,5.520262698589c-5.324508702186,3.680175132393 -7.986763053277,8.652326641051 -7.986763053277,14.916454525974c0,5.950921490678 2.466500354687,10.414112608686 7.399501064066,13.389573354024c4.933000709376,2.975460745339 12.645708167687,6.029223089239 23.138122374934,9.161287031701c9.08298543314,2.662254351092 16.325883300082,5.167905505062 21.72869360083,7.516953461908c5.402810300746,2.349047956846 10.061755415158,5.676865895712 13.976835343236,9.983453816596c3.915079928076,4.306587920885 5.872619892116,9.905152218036 5.872619892116,16.795692891451c0,9.866001418755 -3.797627530235,17.813613672751 -11.392882590704,23.84283676199c-7.595255060471,6.029223089239 -17.73531207419,9.043834633858 -30.420171041162,9.043834633858Z" style="fill:#fff;fill-rule:nonzero;"/><path d="M213.507025342361,8.277746563142l0,5.881699956406c0,4.599291774499 -3.734041662334,8.333333158878 -8.333333779195,8.333333158878l-43.781453054811,0c-4.59929211686,0 -8.333333779194,-3.734041384379 -8.333333779194,-8.333333158878l0,-5.881699956406c0,-4.599291774499 3.734041662334,-8.333333158878 8.333333779194,-8.333333158878l43.781453054811,0c4.599292116861,0 8.333333779195,3.734041384379 8.333333779195,8.333333158878Z" style="fill:#fff;"/></g></g></svg>